<svg version="1.0" xmlns="http://www.w3.org/2000/svg" width="630.667" height="493.333" viewBox="0 0 473 370"><path d="M407.2 14.7c-.5 1-1.5 4.6-2.2 8l-1.2 6.1L414 40.6c11.9 13.8 14.4 17.7 16.6 26.3 2.1 8.4 1.2 15.2-3.1 23.9-8.2 16.2-22.5 24.2-41.3 22.9-9.2-.7-15.4-2.9-50.7-18.4-10.4-4.6-19.8-8.3-20.9-8.3-1.9 0-13.7 6-24.7 12.6-3.1 1.9-6.8 3.4-8.1 3.4-1.4 0-9.4-2.8-17.9-6.2-16.9-6.7-23.6-8-28.6-5.4-1.9.9-6.3 6.2-11.8 14.1-10.8 15.5-24.6 31.5-35.9 41.8-6.4 5.9-8.6 8.5-8.6 10.3 0 6.2 19.3 28.9 35.5 42 11.3 9 41.4 21.4 56.5 23.2 16.9 2 24.7-2.6 29.7-17.8 2.7-8.2 2.4-23.6-.6-31.3-6.5-16.6-23.1-27.5-44.6-29.5-7.1-.6-8-.9-8-2.7 0-1.8.6-2 8-1.8 14.6.2 32.2 8.2 41 18.6 13.8 16.1 15.1 43.9 2.7 60.1-5.4 7.2-10.6 9.6-20.7 9.6-9.9 0-22.1-2.2-31.8-5.7-15.8-5.6-51.2-24.8-64.2-34.8-3.3-2.5-7-4.8-8.3-5.2-3.4-.8-21.2 5.1-32.6 11-27 13.8-50.5 38.9-67.2 71.8-3.2 6.3-3.8 8.6-4.2 15.4-.3 6.5 0 9.1 1.8 13.7 1.2 3.2 2.5 5.8 2.9 5.8.5 0 1.9-2.3 3.1-5.2 1.9-4.6 2.1-6.3 1.6-13.7l-.6-8.6 6.1-8.3c3.4-4.6 6.3-8.1 6.6-7.9.2.3 1.1 9.4 1.9 20.3 1.8 25.2 2.5 30.4 8 55.3 2.5 11.2 4.2 20.7 3.7 21.1-.4.5-17 1.8-36.8 2.9-40.5 2.4-48 3-46.8 4.1 1 1 40 2.7 91.8 4.1 37.1 1 185.9.6 204.5-.6 3.6-.2 24.7-.9 47-1.6 22.3-.6 40.9-1.5 41.3-1.9.9-.8-18.2-2.7-69.5-6.9-18-1.5-33-3-33.4-3.4-.7-.7 2.8-20.9 10.7-61 6.3-32 12.5-50.8 21.5-64.9 1.7-2.6 1.7-2.7-1.4-7.4-1.7-2.7-3-5-2.8-5.2.2-.1 5.7 2.4 12.2 5.6 6.6 3.3 14.6 6.9 17.9 8 14.4 4.9 32.7 6.5 41.8 3.8 4.6-1.4 10.7-5.1 10.7-6.5 0-.4-2.4-.8-5.2-1-13.2-.5-28.3-5.9-41.1-14.4-6.6-4.4-8.5-6.2-7.5-6.9.7-.5 4.2-2.4 7.8-4.2l6.5-3.4 9 3.1c7.5 2.5 10.6 3 18.5 3.1 9.9 0 15.7-1.7 21.5-6.3l2.5-1.9-7.7-.7c-10.9-1-20.6-2.8-21-4-.1-.6 3.9-2.5 9-4.3 32.9-11.9 49.7-35.5 51.4-71.7.4-9.6.1-13.9-1.5-21.5-4.4-21.5-16.4-43.1-36.6-66.3-7.7-8.8-10.7-10.4-12.4-7zM212.9 297.8c4.3 3.2 5 7 5 29.4l.1 20.8h-29.8l-.7-10.7c-1.6-23.4 2.5-37.1 12.5-41.2 3.4-1.5 9.8-.6 12.9 1.7zm63.4.2c-.1.8-1.9 9.8-4.1 20-2.2 10.2-4.6 21.1-5.2 24.2l-1.1 5.8h-12.6l3.4-12.3c8.3-30.2 10.4-37.1 11.5-38.4 1.6-1.9 8.4-1.3 8.1.7zm-119.9 10.1c-6.9 9.7-6.8 9.2-4.8 25.9.9 8.3 1.5 15.2 1.3 15.4-.2.2-2.8.6-5.6 1l-5.3.7v-38.7l2.8-2.6c3.7-3.5 12.5-7.9 13.6-6.8.5.6-.3 2.6-2 5.1z"/></svg>