<?xml version="1.0" standalone="no"?>
<!DOCTYPE svg PUBLIC "-//W3C//DTD SVG 20010904//EN"
 "http://www.w3.org/TR/2001/REC-SVG-20010904/DTD/svg10.dtd">
<svg version="1.0" xmlns="http://www.w3.org/2000/svg"
 width="473.000000pt" height="370.000000pt" viewBox="0 0 473.000000 370.000000"
 preserveAspectRatio="xMidYMid meet">

<g transform="translate(0.000000,370.000000) scale(0.100000,-0.100000)"
fill="#000000" stroke="none">
<path d="M4072 3553 c-5 -10 -15 -46 -22 -80 l-12 -61 102 -118 c119 -138 144
-177 166 -263 21 -84 12 -152 -31 -239 -82 -162 -225 -242 -413 -229 -92 7
-154 29 -507 184 -104 46 -198 83 -209 83 -19 0 -137 -60 -247 -126 -31 -19
-68 -34 -81 -34 -14 0 -94 28 -179 62 -169 67 -236 80 -286 54 -19 -9 -63 -62
-118 -141 -108 -155 -246 -315 -359 -418 -64 -59 -86 -85 -86 -103 0 -62 193
-289 355 -420 113 -90 414 -214 565 -232 169 -20 247 26 297 178 27 82 24 236
-6 313 -65 166 -231 275 -446 295 -71 6 -80 9 -80 27 0 18 6 20 80 18 146 -2
322 -82 410 -186 138 -161 151 -439 27 -601 -54 -72 -106 -96 -207 -96 -99 0
-221 22 -318 57 -158 56 -512 248 -642 348 -33 25 -70 48 -83 52 -34 8 -212
-51 -326 -110 -270 -138 -505 -389 -672 -718 -32 -63 -38 -86 -42 -154 -3 -65
0 -91 18 -137 12 -32 25 -58 29 -58 5 0 19 23 31 52 19 46 21 63 16 137 l-6
86 61 83 c34 46 63 81 66 79 2 -3 11 -94 19 -203 18 -252 25 -304 80 -553 25
-112 42 -207 37 -211 -4 -5 -170 -18 -368 -29 -405 -24 -480 -30 -468 -41 10
-10 400 -27 918 -41 371 -10 1859 -6 2045 6 36 2 247 9 470 16 223 6 409 15
413 19 9 8 -182 27 -695 69 -180 15 -330 30 -334 34 -7 7 28 209 107 610 63
320 125 508 215 649 17 26 17 27 -14 74 -17 27 -30 50 -28 52 2 1 57 -24 122
-56 66 -33 146 -69 179 -80 144 -49 327 -65 418 -38 46 14 107 51 107 65 0 4
-24 8 -52 10 -132 5 -283 59 -411 144 -66 44 -85 62 -75 69 7 5 42 24 78 42
l65 34 90 -31 c75 -25 106 -30 185 -31 99 0 157 17 215 63 l25 19 -77 7 c-109
10 -206 28 -210 40 -1 6 39 25 90 43 329 119 497 355 514 717 4 96 1 139 -15
215 -44 215 -164 431 -366 663 -77 88 -107 104 -124 70z m-1943 -2831 c43 -32
50 -70 50 -294 l1 -208 -149 0 -149 0 -7 107 c-16 234 25 371 125 412 34 15
98 6 129 -17z m634 -2 c-1 -8 -19 -98 -41 -200 -22 -102 -46 -211 -52 -242
l-11 -58 -63 0 -63 0 34 123 c83 302 104 371 115 384 16 19 84 13 81 -7z
m-1199 -101 c-69 -97 -68 -92 -48 -259 9 -83 15 -152 13 -154 -2 -2 -28 -6
-56 -10 l-53 -7 0 194 0 193 28 26 c37 35 125 79 136 68 5 -6 -3 -26 -20 -51z"/>
</g>
</svg>
